<?xml version="1.0" encoding="utf-8"?>
<svg viewBox="50.434 0 949.566 460.897" xmlns="http://www.w3.org/2000/svg">
  <defs>
    <style type="text/css" id="style2">
	.st0{fill:#FFFFFF;}
	.st1{fill:#EBAF00;}
</style>
  </defs>
  <path class="st0" d="M 128.795 261.182 C 128.385 252.116 128.605 194.915 128.393 171.219 C 128.39 170.905 263.465 170.36 284.611 170.348 C 293.56 170.343 294.99 170.137 294.959 161.765 C 294.89 143.037 295.272 124.354 294.59 100.454 C 294.364 92.536 294.613 90.94 285.602 91.209 L 128.024 90.443 L 50.997 90.443 L 50.997 456.659 C 50.997 456.659 52.348 457.335 56.402 458.011 C 61.808 459.362 90.186 465.443 111.132 447.876 C 129.375 432.335 133.429 414.092 133.429 393.822 L 133.429 341.119 C 160.115 340.4 235.773 340.08 246.351 339.704 C 247.811 339.652 260.059 339.656 259.868 325.616 C 259.604 306.249 259.583 284.586 259.129 268.764 C 258.99 263.908 250.258 261.056 248.241 261.04 C 198.747 260.647 128.856 262.536 128.795 261.182 Z" id="path4" style="fill:#000000;stroke-width:6.75675678"/>
  <path class="st0" d="m 408.1081,223.64864 c 0,31.75676 3.37838,70.27027 34.45946,112.16216 0.67567,0.67567 2.02702,2.7027 2.02702,2.7027 -12.83783,21.62162 -28.37837,36.48648 -49.32432,36.48648 -16.21622,0 -32.43243,-8.78378 -45.94595,-23.64864 -14.18918,-16.21622 -20.94594,-37.16216 -20.94594,-59.45946 V 0 h 79.05405 z" id="path6" style="fill:#000000;stroke-width:6.75675678"/>
  <polygon class="st1" points="117.9,33.9 104.1,13.5 118.3,13.5 132,33.9 118.3,54.2 104.1,54.2 " id="polygon8" style="fill:#B21000" transform="matrix(6.756756782531738, 0, 0, 6.756756782531738, 0, 0)"/>
  <polygon class="st0" points="135.7,31.6 148,13.5 133.8,13.5 128.7,21 " id="polygon10" style="fill:#000000" transform="matrix(6.756756782531738, 0, 0, 6.756756782531738, 0, 0)"/>
  <path class="st0" d="m 869.59458,316.2162 c 0,0 16.2162,22.2973 16.2162,22.2973 15.54058,24.32432 35.8108,36.48648 59.45949,36.48648 25,-0.67567 42.56752,-22.29729 49.3243,-30.4054 0,0 -12.16218,-10.81081 -27.7027,-29.05405 -20.94598,-24.32432 -48.64868,-68.91892 -49.3243,-70.94594 z" id="path12" style="fill:#000000;stroke-width:6.75675678"/>
  <path style="fill:#000000;stroke-width:6.75675678" id="path16" d="m 632.43242,287.16215 c -16.21622,14.86486 -27.02703,22.97297 -49.32432,22.97297 -39.86487,0 -62.83784,-28.37837 -66.21622,-59.45945 h 211.4865 c 1.35131,-4.05406 2.027,-9.45946 2.027,-18.24324 0,-85.81082 -62.83783,-150 -145.27026,-150 -78.37837,0 -142.56756,65.54054 -142.56756,147.29729 0,81.08108 64.18919,145.27026 144.59459,145.27026 56.08108,0 104.72973,-31.75675 131.08105,-87.83783 z M 585.8108,147.29729 c 35.13513,0 61.48648,22.97297 67.56756,53.37838 H 519.59458 c 6.75676,-31.75676 31.75676,-53.37838 66.21622,-53.37838 z" class="st0"/>
</svg>